<svg width="48" height="48" viewBox="0 0 48 48" fill="none" xmlns="http://www.w3.org/2000/svg">
<rect width="48" height="48" rx="24" fill="#DBF9F7"/>
<path d="M38 22V26C38 26.5304 37.7893 27.0391 37.4142 27.4142C37.0391 27.7893 36.5304 28 36 28H35L32.7375 34.3363C32.6681 34.5306 32.5403 34.6988 32.3715 34.8176C32.2028 34.9364 32.0014 35.0002 31.795 35H30.205C29.9986 35.0002 29.7972 34.9364 29.6285 34.8176C29.4597 34.6988 29.3319 34.5306 29.2625 34.3363L28.7863 33H20.2138L19.7375 34.3363C19.6681 34.5306 19.5403 34.6988 19.3715 34.8176C19.2028 34.9364 19.0014 35.0002 18.795 35H17.205C16.9986 35.0002 16.7972 34.9364 16.6285 34.8176C16.4597 34.6988 16.3319 34.5306 16.2625 34.3363L14.625 29.75C12.9342 27.909 11.9972 25.4996 12 23C12 20.3478 13.0536 17.8043 14.9289 15.9289C16.8043 14.0536 19.3478 13 22 13H26C27.9514 12.9994 29.8603 13.5698 31.4915 14.6408C33.1226 15.7118 34.4048 17.2367 35.18 19.0275C35.3171 19.3454 35.4381 19.6699 35.5425 20H36C36.5304 20 37.0391 20.2107 37.4142 20.5858C37.7893 20.9609 38 21.4696 38 22Z" fill="#9EEEE6"/>
<path d="M32 22.5C32 22.7967 31.912 23.0867 31.7472 23.3334C31.5824 23.58 31.3481 23.7723 31.074 23.8858C30.7999 23.9994 30.4983 24.0291 30.2074 23.9712C29.9164 23.9133 29.6491 23.7704 29.4393 23.5607C29.2296 23.3509 29.0867 23.0836 29.0288 22.7926C28.9709 22.5017 29.0007 22.2001 29.1142 21.926C29.2277 21.6519 29.42 21.4176 29.6666 21.2528C29.9133 21.088 30.2033 21 30.5 21C30.8978 21 31.2794 21.158 31.5607 21.4393C31.842 21.7206 32 22.1022 32 22.5ZM27 16H22C21.7348 16 21.4804 16.1054 21.2929 16.2929C21.1054 16.4804 21 16.7348 21 17C21 17.2652 21.1054 17.5196 21.2929 17.7071C21.4804 17.8946 21.7348 18 22 18H27C27.2652 18 27.5196 17.8946 27.7071 17.7071C27.8946 17.5196 28 17.2652 28 17C28 16.7348 27.8946 16.4804 27.7071 16.2929C27.5196 16.1054 27.2652 16 27 16ZM39 22V26C39 26.7956 38.6839 27.5587 38.1213 28.1213C37.5587 28.6839 36.7956 29 36 29H35.705L33.6787 34.6725C33.54 35.061 33.2845 35.3972 32.9473 35.6348C32.6101 35.8725 32.2076 36 31.795 36H30.205C29.7924 36 29.3899 35.8725 29.0527 35.6348C28.7155 35.3972 28.46 35.061 28.3213 34.6725L28.0812 34H20.9187L20.6788 34.6725C20.54 35.061 20.2845 35.3972 19.9473 35.6348C19.6101 35.8725 19.2076 36 18.795 36H17.205C16.7924 36 16.3899 35.8725 16.0527 35.6348C15.7155 35.3972 15.46 35.061 15.3212 34.6725L13.75 30.2775C12.2552 28.5857 11.3193 26.4737 11.07 24.23C10.7473 24.3995 10.477 24.654 10.2884 24.9659C10.0999 25.2779 10.0001 25.6355 10 26C10 26.2652 9.89464 26.5196 9.70711 26.7071C9.51957 26.8946 9.26522 27 9 27C8.73478 27 8.48043 26.8946 8.29289 26.7071C8.10536 26.5196 8 26.2652 8 26C8.00153 25.1082 8.30103 24.2425 8.85092 23.5404C9.40081 22.8383 10.1695 22.3401 11.035 22.125C11.2584 19.3692 12.51 16.7981 14.5414 14.9224C16.5727 13.0467 19.2351 12.0035 22 12H35C35.2652 12 35.5196 12.1054 35.7071 12.2929C35.8946 12.4804 36 12.7348 36 13C36 13.2652 35.8946 13.5196 35.7071 13.7071C35.5196 13.8946 35.2652 14 35 14H32.3263C33.9858 15.1644 35.291 16.765 36.0975 18.625C36.1512 18.75 36.2038 18.875 36.2537 19C37.0046 19.0637 37.704 19.4077 38.2129 19.9636C38.7217 20.5194 39.0027 21.2464 39 22ZM37 22C37 21.7348 36.8946 21.4804 36.7071 21.2929C36.5196 21.1054 36.2652 21 36 21H35.5425C35.3295 21.0002 35.122 20.9324 34.9503 20.8065C34.7785 20.6806 34.6514 20.5032 34.5875 20.3C34.0146 18.4717 32.8723 16.8743 31.3275 15.7409C29.7826 14.6076 27.916 13.9976 26 14H22C20.2534 13.9999 18.5445 14.508 17.0817 15.4624C15.6189 16.4168 14.4654 17.7762 13.7619 19.3749C13.0584 20.9735 12.8352 22.7423 13.1197 24.4656C13.4041 26.1889 14.1838 27.7922 15.3637 29.08C15.454 29.1781 15.5237 29.2933 15.5687 29.4188L17.205 34H18.795L19.2725 32.6637C19.3418 32.4696 19.4695 32.3016 19.638 32.1828C19.8065 32.0639 20.0076 32.0001 20.2137 32H28.7862C28.9924 32.0001 29.1935 32.0639 29.362 32.1828C29.5305 32.3016 29.6582 32.4696 29.7275 32.6637L30.205 34H31.795L34.0588 27.6637C34.1281 27.4696 34.2557 27.3016 34.4242 27.1828C34.5927 27.0639 34.7938 27.0001 35 27H36C36.2652 27 36.5196 26.8946 36.7071 26.7071C36.8946 26.5196 37 26.2652 37 26V22Z" fill="#033839"/>
</svg>
