<svg width="48" height="48" viewBox="0 0 48 48" fill="none" xmlns="http://www.w3.org/2000/svg">
<rect width="48" height="48" rx="24" fill="#DBF9F7"/>
<path d="M38 24.5C38 26.985 33.5225 29 28 29C25.55 29 23.305 28.6037 21.5662 27.945C26.345 27.6062 30 25.75 30 23.5V20.09C34.565 20.5075 38 22.3225 38 24.5ZM30 18.5C30 16.015 25.5225 14 20 14C14.4775 14 10 16.015 10 18.5C10 20.985 14.4775 23 20 23C25.5225 23 30 20.985 30 18.5Z" fill="#9EEEE6"/>
<path d="M31 19.1962V18.5C31 15.365 26.2712 13 20 13C13.7288 13 9 15.365 9 18.5V23.5C9 26.1112 12.2812 28.1863 17 28.8075V29.5C17 32.635 21.7288 35 28 35C34.2712 35 39 32.635 39 29.5V24.5C39 21.9125 35.8225 19.835 31 19.1962ZM37 24.5C37 26.1525 33.1512 28 28 28C27.5338 28 27.0712 27.9838 26.615 27.9538C29.3112 26.9713 31 25.375 31 23.5V21.2175C34.7337 21.7737 37 23.2838 37 24.5ZM17 26.7812V23.8075C17.9947 23.9371 18.9969 24.0014 20 24C21.0031 24.0014 22.0053 23.9371 23 23.8075V26.7812C22.0068 26.928 21.004 27.0011 20 27C18.996 27.0011 17.9932 26.928 17 26.7812ZM29 21.7413V23.5C29 24.5487 27.4487 25.675 25 26.3587V23.4375C26.6138 23.0463 27.98 22.4637 29 21.7413ZM20 15C25.1512 15 29 16.8475 29 18.5C29 20.1525 25.1512 22 20 22C14.8488 22 11 20.1525 11 18.5C11 16.8475 14.8488 15 20 15ZM11 23.5V21.7413C12.02 22.4637 13.3863 23.0463 15 23.4375V26.3587C12.5512 25.675 11 24.5487 11 23.5ZM19 29.5V28.9788C19.3287 28.9913 19.6613 29 20 29C20.485 29 20.9587 28.9837 21.4237 28.9562C21.9403 29.1412 22.4665 29.2981 23 29.4263V32.3587C20.5513 31.675 19 30.5487 19 29.5ZM25 32.7812V29.8C25.9944 29.9337 26.9967 30.0005 28 30C29.0031 30.0014 30.0053 29.9371 31 29.8075V32.7812C29.0106 33.0729 26.9894 33.0729 25 32.7812ZM33 32.3587V29.4375C34.6138 29.0462 35.98 28.4637 37 27.7412V29.5C37 30.5487 35.4487 31.675 33 32.3587Z" fill="#033839"/>
</svg>
