<svg width="48" height="48" viewBox="0 0 48 48" fill="none" xmlns="http://www.w3.org/2000/svg">
<rect width="48" height="48" rx="24" fill="#DBF9F7"/>
<path d="M35 22.5861V34.9998H27V26.9998H21V34.9998H13V22.5861L23.2925 12.2923C23.3854 12.1993 23.4957 12.1256 23.6171 12.0753C23.7385 12.0249 23.8686 11.999 24 11.999C24.1314 11.999 24.2615 12.0249 24.3829 12.0753C24.5043 12.1256 24.6146 12.1993 24.7075 12.2923L35 22.5861Z" fill="#9EEEE6"/>
<path d="M38 33.9998H36V24.9998L36.2925 25.2923C36.4805 25.48 36.7353 25.5853 37.0009 25.585C37.2665 25.5848 37.5211 25.4791 37.7087 25.2911C37.8964 25.1031 38.0017 24.8483 38.0014 24.5827C38.0012 24.3171 37.8955 24.0625 37.7075 23.8748L25.4137 11.5848C25.0387 11.21 24.5302 10.9995 24 10.9995C23.4698 10.9995 22.9613 11.21 22.5863 11.5848L10.2925 23.8748C10.105 24.0625 9.99977 24.3169 9.99989 24.5822C10 24.8474 10.1055 25.1017 10.2931 25.2892C10.4808 25.4767 10.7352 25.5819 11.0004 25.5818C11.2657 25.5817 11.52 25.4762 11.7075 25.2886L12 24.9998V33.9998H10C9.73478 33.9998 9.48043 34.1052 9.29289 34.2927C9.10536 34.4803 9 34.7346 9 34.9998C9 35.2651 9.10536 35.5194 9.29289 35.7069C9.48043 35.8945 9.73478 35.9998 10 35.9998H38C38.2652 35.9998 38.5196 35.8945 38.7071 35.7069C38.8946 35.5194 39 35.2651 39 34.9998C39 34.7346 38.8946 34.4803 38.7071 34.2927C38.5196 34.1052 38.2652 33.9998 38 33.9998ZM14 22.9998L24 12.9998L34 22.9998V33.9998H28V26.9998C28 26.7346 27.8946 26.4803 27.7071 26.2927C27.5196 26.1052 27.2652 25.9998 27 25.9998H21C20.7348 25.9998 20.4804 26.1052 20.2929 26.2927C20.1054 26.4803 20 26.7346 20 26.9998V33.9998H14V22.9998ZM26 33.9998H22V27.9998H26V33.9998Z" fill="#033839"/>
</svg>
