<svg width="48" height="48" viewBox="0 0 48 48" fill="none" xmlns="http://www.w3.org/2000/svg">
<rect width="48" height="48" rx="24" fill="#DBF9F7"/>
<path d="M36 16V34H12V14H34C34.5304 14 35.0391 14.2107 35.4142 14.5858C35.7893 14.9609 36 15.4696 36 16Z" fill="#9EEEE6"/>
<path d="M37 34C37 34.2652 36.8946 34.5196 36.7071 34.7071C36.5196 34.8946 36.2652 35 36 35H12C11.7348 35 11.4804 34.8946 11.2929 34.7071C11.1054 34.5196 11 34.2652 11 34V14C11 13.7348 11.1054 13.4804 11.2929 13.2929C11.4804 13.1054 11.7348 13 12 13C12.2652 13 12.5196 13.1054 12.7071 13.2929C12.8946 13.4804 13 13.7348 13 14V27.5863L19.2925 21.2925C19.3854 21.1995 19.4957 21.1258 19.6171 21.0754C19.7385 21.0251 19.8686 20.9992 20 20.9992C20.1314 20.9992 20.2615 21.0251 20.3829 21.0754C20.5043 21.1258 20.6146 21.1995 20.7075 21.2925L24 24.5863L30.5863 18H28C27.7348 18 27.4804 17.8946 27.2929 17.7071C27.1054 17.5196 27 17.2652 27 17C27 16.7348 27.1054 16.4804 27.2929 16.2929C27.4804 16.1054 27.7348 16 28 16H33C33.2652 16 33.5196 16.1054 33.7071 16.2929C33.8946 16.4804 34 16.7348 34 17V22C34 22.2652 33.8946 22.5196 33.7071 22.7071C33.5196 22.8946 33.2652 23 33 23C32.7348 23 32.4804 22.8946 32.2929 22.7071C32.1054 22.5196 32 22.2652 32 22V19.4137L24.7075 26.7075C24.6146 26.8005 24.5043 26.8742 24.3829 26.9246C24.2615 26.9749 24.1314 27.0008 24 27.0008C23.8686 27.0008 23.7385 26.9749 23.6171 26.9246C23.4957 26.8742 23.3854 26.8005 23.2925 26.7075L20 23.4137L13 30.4137V33H36C36.2652 33 36.5196 33.1054 36.7071 33.2929C36.8946 33.4804 37 33.7348 37 34Z" fill="#033839"/>
</svg>
