<svg width="48" height="48" viewBox="0 0 48 48" fill="none" xmlns="http://www.w3.org/2000/svg">
<rect width="48" height="48" rx="24" fill="#DBF9F7"/>
<path d="M21 29C21 29.9889 20.7068 30.9556 20.1573 31.7779C19.6079 32.6001 18.827 33.241 17.9134 33.6194C16.9998 33.9978 15.9945 34.0969 15.0246 33.9039C14.0546 33.711 13.1637 33.2348 12.4645 32.5355C11.7652 31.8363 11.289 30.9454 11.0961 29.9755C10.9031 29.0055 11.0022 28.0002 11.3806 27.0866C11.759 26.173 12.3999 25.3921 13.2222 24.8427C14.0444 24.2932 15.0111 24 16 24C17.3261 24 18.5979 24.5268 19.5355 25.4645C20.4732 26.4021 21 27.6739 21 29ZM32 24C31.0111 24 30.0444 24.2932 29.2222 24.8427C28.3999 25.3921 27.759 26.173 27.3806 27.0866C27.0022 28.0002 26.9031 29.0055 27.0961 29.9755C27.289 30.9454 27.7652 31.8363 28.4645 32.5355C29.1637 33.2348 30.0546 33.711 31.0245 33.9039C31.9945 34.0969 32.9998 33.9978 33.9134 33.6194C34.8271 33.241 35.6079 32.6001 36.1574 31.7779C36.7068 30.9556 37 29.9889 37 29C37 27.6739 36.4732 26.4021 35.5355 25.4645C34.5979 24.5268 33.3261 24 32 24Z" fill="#9EEEE6"/>
<path d="M37.65 26.9838C37.5665 26.7507 37.4684 26.5232 37.3563 26.3025L32.1575 14.475C32.1083 14.3611 32.0379 14.2576 31.95 14.17C31.5786 13.7985 31.1376 13.5038 30.6522 13.3027C30.1668 13.1016 29.6466 12.9981 29.1213 12.9981C28.5959 12.9981 28.0757 13.1016 27.5903 13.3027C27.1049 13.5038 26.6639 13.7985 26.2925 14.17C26.1056 14.3571 26.0005 14.6106 26 14.875V18H22V14.875C22.0001 14.7436 21.9743 14.6135 21.9241 14.4922C21.8739 14.3708 21.8003 14.2604 21.7075 14.1675C21.3361 13.796 20.8951 13.5013 20.4097 13.3002C19.9243 13.0991 19.4041 12.9956 18.8788 12.9956C18.3534 12.9956 17.8332 13.0991 17.3478 13.3002C16.8624 13.5013 16.4214 13.796 16.05 14.1675C15.9621 14.2551 15.8917 14.3586 15.8425 14.4725L10.6438 26.3C10.5316 26.5207 10.4335 26.7482 10.35 26.9813C10.0556 27.8049 9.9449 28.683 10.0256 29.554C10.1063 30.4249 10.3764 31.2677 10.8171 32.0233C11.2577 32.7789 11.8583 33.429 12.5766 33.928C13.2949 34.4271 14.1137 34.7631 14.9756 34.9124C15.8374 35.0618 16.7215 35.0209 17.5659 34.7926C18.4103 34.5643 19.1945 34.1542 19.8637 33.5909C20.5329 33.0277 21.0709 32.3249 21.4399 31.5319C21.8089 30.7388 22.0001 29.8747 22 29V20H26V29C25.9996 29.8748 26.1904 30.7391 26.5592 31.5324C26.928 32.3256 27.4658 33.0287 28.1349 33.5922C28.804 34.1558 29.5882 34.5662 30.4326 34.7947C31.277 35.0232 32.1612 35.0643 33.0232 34.9151C33.8852 34.766 34.7041 34.4301 35.4226 33.9311C36.1411 33.4321 36.7418 32.782 37.1826 32.0263C37.6234 31.2707 37.8937 30.4278 37.9744 29.5568C38.0551 28.6857 37.9444 27.8075 37.65 26.9838ZM17.5888 15.4688C17.9222 15.188 18.3381 15.0239 18.7734 15.0013C19.2086 14.9788 19.6394 15.099 20 15.3438V24.5325C19.2193 23.8314 18.268 23.3479 17.2415 23.1302C16.215 22.9126 15.1493 22.9686 14.1513 23.2925L17.5888 15.4688ZM16 33C15.2089 33 14.4355 32.7654 13.7777 32.3259C13.1199 31.8864 12.6072 31.2616 12.3045 30.5307C12.0017 29.7998 11.9225 28.9956 12.0769 28.2196C12.2312 27.4437 12.6122 26.731 13.1716 26.1716C13.731 25.6122 14.4437 25.2312 15.2196 25.0769C15.9956 24.9225 16.7998 25.0017 17.5307 25.3045C18.2616 25.6072 18.8864 26.1199 19.3259 26.7777C19.7654 27.4355 20 28.2089 20 29C20 30.0609 19.5786 31.0783 18.8284 31.8284C18.0783 32.5786 17.0609 33 16 33ZM28 15.3425C28.3606 15.0978 28.7914 14.9775 29.2266 15.0001C29.6619 15.0227 30.0779 15.1868 30.4112 15.4675L33.8487 23.29C32.8506 22.9662 31.7849 22.9105 30.7584 23.1283C29.7318 23.3462 28.7806 23.83 28 24.5313V15.3425ZM32 33C31.2089 33 30.4355 32.7654 29.7777 32.3259C29.1199 31.8864 28.6072 31.2616 28.3045 30.5307C28.0017 29.7998 27.9225 28.9956 28.0769 28.2196C28.2312 27.4437 28.6122 26.731 29.1716 26.1716C29.731 25.6122 30.4437 25.2312 31.2196 25.0769C31.9956 24.9225 32.7998 25.0017 33.5307 25.3045C34.2616 25.6072 34.8864 26.1199 35.3259 26.7777C35.7654 27.4355 36 28.2089 36 29C36 30.0609 35.5786 31.0783 34.8284 31.8284C34.0783 32.5786 33.0609 33 32 33Z" fill="#033839"/>
</svg>
