<svg width="48" height="48" viewBox="0 0 48 48" fill="none" xmlns="http://www.w3.org/2000/svg">
<rect width="48" height="48" rx="24" fill="#DBF9F7"/>
<path d="M37 20H11L24 12L37 20Z" fill="#9EEEE6"/>
<path d="M11 20.9999H14V28.9999H12C11.7348 28.9999 11.4804 29.1052 11.2929 29.2928C11.1054 29.4803 11 29.7347 11 29.9999C11 30.2651 11.1054 30.5194 11.2929 30.707C11.4804 30.8945 11.7348 30.9999 12 30.9999H36C36.2652 30.9999 36.5196 30.8945 36.7071 30.707C36.8946 30.5194 37 30.2651 37 29.9999C37 29.7347 36.8946 29.4803 36.7071 29.2928C36.5196 29.1052 36.2652 28.9999 36 28.9999H34V20.9999H37C37.2176 20.9996 37.4292 20.9285 37.6026 20.7971C37.7761 20.6658 37.902 20.4815 37.9612 20.2721C38.0205 20.0627 38.0098 19.8398 37.9308 19.637C37.8519 19.4343 37.709 19.2628 37.5238 19.1486L24.5238 11.1486C24.3662 11.0518 24.1849 11.0005 24 11.0005C23.8151 11.0005 23.6338 11.0518 23.4762 11.1486L10.4762 19.1486C10.291 19.2628 10.1481 19.4343 10.0692 19.637C9.99021 19.8398 9.97955 20.0627 10.0388 20.2721C10.098 20.4815 10.2239 20.6658 10.3974 20.7971C10.5708 20.9285 10.7824 20.9996 11 20.9999ZM16 20.9999H20V28.9999H16V20.9999ZM26 20.9999V28.9999H22V20.9999H26ZM32 28.9999H28V20.9999H32V28.9999ZM24 13.1736L33.4675 18.9999H14.5325L24 13.1736ZM39 33.9999C39 34.2651 38.8946 34.5194 38.7071 34.707C38.5196 34.8945 38.2652 34.9999 38 34.9999H10C9.73478 34.9999 9.48043 34.8945 9.29289 34.707C9.10536 34.5194 9 34.2651 9 33.9999C9 33.7347 9.10536 33.4803 9.29289 33.2928C9.48043 33.1052 9.73478 32.9999 10 32.9999H38C38.2652 32.9999 38.5196 33.1052 38.7071 33.2928C38.8946 33.4803 39 33.7347 39 33.9999Z" fill="#033839"/>
</svg>
