<svg width="48" height="48" viewBox="0 0 48 48" fill="none" xmlns="http://www.w3.org/2000/svg">
<rect width="48" height="48" rx="24" fill="#DBF9F7"/>
<path d="M35 14H13C12.7348 14 12.4804 14.1054 12.2929 14.2929C12.1054 14.4804 12 14.7348 12 15V32C12 32.2652 12.1054 32.5196 12.2929 32.7071C12.4804 32.8946 12.7348 33 13 33H35C35.2652 33 35.5196 32.8946 35.7071 32.7071C35.8946 32.5196 36 32.2652 36 32V15C36 14.7348 35.8946 14.4804 35.7071 14.2929C35.5196 14.1054 35.2652 14 35 14ZM27 29C26.0111 29 25.0444 28.7068 24.2221 28.1573C23.3999 27.6079 22.759 26.827 22.3806 25.9134C22.0022 24.9998 21.9031 23.9945 22.0961 23.0245C22.289 22.0546 22.7652 21.1637 23.4645 20.4645C24.1637 19.7652 25.0546 19.289 26.0245 19.0961C26.9945 18.9031 27.9998 19.0022 28.9134 19.3806C29.827 19.759 30.6079 20.3999 31.1573 21.2221C31.7068 22.0444 32 23.0111 32 24C32 24.6566 31.8707 25.3068 31.6194 25.9134C31.3681 26.52 30.9998 27.0712 30.5355 27.5355C30.0712 27.9998 29.52 28.3681 28.9134 28.6194C28.3068 28.8707 27.6566 29 27 29Z" fill="#9EEEE6"/>
<path d="M35 13H13C12.4696 13 11.9609 13.2107 11.5858 13.5858C11.2107 13.9609 11 14.4696 11 15V32C11 32.5304 11.2107 33.0391 11.5858 33.4142C11.9609 33.7893 12.4696 34 13 34H15V36C15 36.2652 15.1054 36.5196 15.2929 36.7071C15.4804 36.8946 15.7348 37 16 37C16.2652 37 16.5196 36.8946 16.7071 36.7071C16.8946 36.5196 17 36.2652 17 36V34H31V36C31 36.2652 31.1054 36.5196 31.2929 36.7071C31.4804 36.8946 31.7348 37 32 37C32.2652 37 32.5196 36.8946 32.7071 36.7071C32.8946 36.5196 33 36.2652 33 36V34H35C35.5304 34 36.0391 33.7893 36.4142 33.4142C36.7893 33.0391 37 32.5304 37 32V15C37 14.4696 36.7893 13.9609 36.4142 13.5858C36.0391 13.2107 35.5304 13 35 13ZM35 32H13V15H35V23H32.915C32.6643 21.5166 31.8654 20.1815 30.6767 19.2594C29.4881 18.3372 27.9963 17.8952 26.4972 18.021C24.998 18.1468 23.6008 18.8312 22.5824 19.9386C21.5641 21.046 20.9989 22.4956 20.9989 24C20.9989 25.5044 21.5641 26.954 22.5824 28.0614C23.6008 29.1688 24.998 29.8532 26.4972 29.979C27.9963 30.1048 29.4881 29.6628 30.6767 28.7406C31.8654 27.8185 32.6643 26.4834 32.915 25H35V32ZM28.73 23C28.5099 22.6187 28.1701 22.3207 27.7633 22.1522C27.3566 21.9838 26.9056 21.9542 26.4803 22.0681C26.055 22.1821 25.6793 22.4332 25.4112 22.7825C25.1432 23.1318 24.9979 23.5597 24.9979 24C24.9979 24.4403 25.1432 24.8682 25.4112 25.2175C25.6793 25.5668 26.055 25.8179 26.4803 25.9319C26.9056 26.0458 27.3566 26.0162 27.7633 25.8478C28.1701 25.6793 28.5099 25.3813 28.73 25H30.875C30.6316 25.9427 30.0528 26.7642 29.247 27.3106C28.4412 27.857 27.4638 28.0908 26.498 27.9681C25.5322 27.8454 24.6443 27.3747 24.0007 26.6442C23.3571 25.9137 23.002 24.9736 23.002 24C23.002 23.0264 23.3571 22.0863 24.0007 21.3558C24.6443 20.6253 25.5322 20.1546 26.498 20.0319C27.4638 19.9092 28.4412 20.143 29.247 20.6894C30.0528 21.2358 30.6316 22.0573 30.875 23H28.73Z" fill="#033839"/>
</svg>
