<svg width="24" height="24" viewBox="0 0 24 24" fill="none" xmlns="http://www.w3.org/2000/svg">
<path d="M23.1751 5H19.3747C18.7734 5 18.2442 5.40412 18.0518 6.01029L16.8492 9.92518C16.4763 11.1249 15.7668 11.9331 14.0109 11.9331H11.5455L13.3254 6.13658C13.4938 5.56829 13.0969 5 12.5316 5H8.73125C8.12993 5 7.60076 5.40412 7.40834 6.01029L6.20569 9.92518C5.83286 11.1249 5.1233 11.9331 3.36743 11.9331H0L6.96336 18.5379C7.8894 19.4093 9.35663 18.9926 9.74148 17.7549L11.329 12.5898L17.6068 18.5379C18.5329 19.4093 20.0001 18.9926 20.385 17.7549L22.1769 11.9331L23.9568 6.14921C24.1372 5.58092 23.7283 5 23.1751 5Z" fill="#888D95"/>
</svg>
