<svg width="32" height="32" viewBox="0 0 32 32" fill="none" xmlns="http://www.w3.org/2000/svg">
<rect width="32" height="32" rx="16" fill="#D1EFF3"/>
<path d="M24.6233 19.8523L15.9983 24.8819L7.37334 19.8523C7.20257 19.7672 7.00582 19.7505 6.82313 19.8054C6.64044 19.8603 6.48554 19.9828 6.38997 20.1479C6.2944 20.313 6.26533 20.5083 6.30869 20.6941C6.35205 20.8799 6.46456 21.0421 6.62334 21.1479L15.6233 26.3979C15.738 26.4648 15.8684 26.5 16.0012 26.5C16.1339 26.5 16.2643 26.4648 16.379 26.3979L25.379 21.1479C25.4654 21.099 25.5413 21.0334 25.6022 20.9549C25.6631 20.8765 25.7078 20.7867 25.7337 20.6908C25.7596 20.5949 25.7662 20.4949 25.7531 20.3964C25.74 20.2979 25.7076 20.2031 25.6575 20.1173C25.6075 20.0315 25.5409 19.9565 25.4616 19.8966C25.3824 19.8368 25.292 19.7932 25.1958 19.7686C25.0996 19.7439 24.9995 19.7386 24.9012 19.753C24.8029 19.7674 24.7085 19.8011 24.6233 19.8523Z" fill="#033839"/>
<path d="M24.6233 15.3523L15.9983 20.3819L7.37334 15.3523C7.20257 15.2672 7.00582 15.2505 6.82313 15.3054C6.64044 15.3603 6.48554 15.4828 6.38997 15.6479C6.2944 15.813 6.26533 16.0083 6.30869 16.1941C6.35205 16.3799 6.46456 16.5421 6.62334 16.6479L15.6233 21.8979C15.738 21.9648 15.8684 22 16.0012 22C16.1339 22 16.2643 21.9648 16.379 21.8979L25.379 16.6479C25.4654 16.599 25.5413 16.5334 25.6022 16.4549C25.6631 16.3765 25.7078 16.2867 25.7337 16.1908C25.7596 16.0949 25.7662 15.9949 25.7531 15.8964C25.74 15.7979 25.7076 15.7031 25.6575 15.6173C25.6075 15.5315 25.5409 15.4565 25.4616 15.3966C25.3824 15.3368 25.292 15.2932 25.1958 15.2686C25.0996 15.2439 24.9995 15.2386 24.9012 15.253C24.8029 15.2674 24.7085 15.3011 24.6233 15.3523Z" fill="#033839"/>
<path d="M6.62597 12.1477L15.626 17.3977C15.7406 17.4646 15.871 17.4999 16.0038 17.4999C16.1365 17.4999 16.2669 17.4646 16.3816 17.3977L25.3816 12.1477C25.4948 12.0817 25.5887 11.9871 25.654 11.8735C25.7193 11.7598 25.7537 11.631 25.7537 11.4999C25.7537 11.3688 25.7193 11.2401 25.654 11.1264C25.5887 11.0127 25.4948 10.9182 25.3816 10.8521L16.3816 5.60211C16.2669 5.53524 16.1365 5.5 16.0038 5.5C15.871 5.5 15.7406 5.53524 15.626 5.60211L6.62597 10.8521C6.51275 10.9182 6.41882 11.0127 6.35354 11.1264C6.28826 11.2401 6.25391 11.3688 6.25391 11.4999C6.25391 11.631 6.28826 11.7598 6.35354 11.8735C6.41882 11.9871 6.51275 12.0817 6.62597 12.1477Z" fill="#033839"/>
</svg>
