<svg width="32" height="32" viewBox="0 0 32 32" fill="none" xmlns="http://www.w3.org/2000/svg">
<rect width="32" height="32" rx="16" fill="#DEE1E5" fill-opacity="0.16"/>
<path d="M13.3751 14.9153C13.4892 14.8495 13.5839 14.7548 13.6497 14.6407C13.7155 14.5267 13.7502 14.3973 13.7501 14.2656V7.51562C13.7495 7.39605 13.7202 7.27837 13.6648 7.1724C13.6094 7.06643 13.5295 6.97523 13.4317 6.90643C13.3339 6.83762 13.2211 6.7932 13.1026 6.77686C12.9842 6.76052 12.8635 6.77274 12.7508 6.8125C10.5617 7.58726 8.72075 9.11748 7.5589 11.1281C6.39706 13.1387 5.9905 15.4977 6.41232 17.7812C6.43419 17.8993 6.48409 18.0104 6.55783 18.1052C6.63157 18.2 6.72699 18.2757 6.83607 18.3259C6.93438 18.3719 7.04162 18.3956 7.15014 18.3953C7.28177 18.3954 7.41111 18.3608 7.52514 18.295L13.3751 14.9153ZM12.2501 8.65188V13.8325L7.76139 16.4228C7.75014 16.2812 7.75014 16.1388 7.75014 16C7.75147 14.4797 8.17229 12.9893 8.96626 11.6928C9.76023 10.3963 10.8966 9.34404 12.2501 8.65188ZM16.0001 6.25C15.8012 6.25 15.6105 6.32902 15.4698 6.46967C15.3292 6.61032 15.2501 6.80109 15.2501 7V15.6081L7.8617 19.9122C7.77596 19.9619 7.70093 20.0281 7.64092 20.107C7.58092 20.1858 7.53715 20.2758 7.51213 20.3717C7.48711 20.4676 7.48134 20.5675 7.49516 20.6656C7.50898 20.7638 7.54211 20.8582 7.59264 20.9434C8.45861 22.4156 9.69611 23.6344 11.1813 24.478C12.6664 25.3215 14.3471 25.7601 16.055 25.7498C17.7629 25.7396 19.4382 25.2809 20.9131 24.4196C22.388 23.5583 23.6108 22.3247 24.4591 20.8422C25.3073 19.3598 25.7513 17.6805 25.7465 15.9726C25.7417 14.2646 25.2883 12.5879 24.4317 11.1102C23.5751 9.63257 22.3454 8.40586 20.8657 7.55289C19.3859 6.69993 17.7081 6.25064 16.0001 6.25ZM16.0001 24.25C14.6909 24.2465 13.401 23.9331 12.2361 23.3354C11.0712 22.7377 10.0644 21.8727 9.29795 20.8113L16.378 16.6863C16.4919 16.6205 16.5865 16.5259 16.6523 16.4121C16.7181 16.2982 16.7528 16.169 16.753 16.0375V7.78375C18.8683 7.97567 20.8282 8.9761 22.2245 10.5768C23.6208 12.1774 24.3459 14.2549 24.2489 16.3768C24.1519 18.4987 23.2402 20.5013 21.7037 21.9679C20.1672 23.4345 18.1242 24.2519 16.0001 24.25Z" fill="#888D95"/>
</svg>
