<svg width="32" height="32" viewBox="0 0 32 32" fill="none" xmlns="http://www.w3.org/2000/svg">
<rect width="32" height="32" rx="16" fill="#DEE1E5" fill-opacity="0.16"/>
<path d="M25.75 23.5C25.75 23.6989 25.671 23.8897 25.5303 24.0303C25.3897 24.171 25.1989 24.25 25 24.25H7C6.80109 24.25 6.61032 24.171 6.46967 24.0303C6.32902 23.8897 6.25 23.6989 6.25 23.5V8.5C6.25 8.30109 6.32902 8.11032 6.46967 7.96967C6.61032 7.82902 6.80109 7.75 7 7.75C7.19891 7.75 7.38968 7.82902 7.53033 7.96967C7.67098 8.11032 7.75 8.30109 7.75 8.5V18.6897L12.4694 13.9694C12.539 13.8996 12.6217 13.8443 12.7128 13.8066C12.8038 13.7688 12.9014 13.7494 13 13.7494C13.0986 13.7494 13.1962 13.7688 13.2872 13.8066C13.3783 13.8443 13.461 13.8996 13.5306 13.9694L16 16.4397L20.9397 11.5H19C18.8011 11.5 18.6103 11.421 18.4697 11.2803C18.329 11.1397 18.25 10.9489 18.25 10.75C18.25 10.5511 18.329 10.3603 18.4697 10.2197C18.6103 10.079 18.8011 10 19 10H22.75C22.9489 10 23.1397 10.079 23.2803 10.2197C23.421 10.3603 23.5 10.5511 23.5 10.75V14.5C23.5 14.6989 23.421 14.8897 23.2803 15.0303C23.1397 15.171 22.9489 15.25 22.75 15.25C22.5511 15.25 22.3603 15.171 22.2197 15.0303C22.079 14.8897 22 14.6989 22 14.5V12.5603L16.5306 18.0306C16.461 18.1004 16.3783 18.1557 16.2872 18.1934C16.1962 18.2312 16.0986 18.2506 16 18.2506C15.9014 18.2506 15.8038 18.2312 15.7128 18.1934C15.6217 18.1557 15.539 18.1004 15.4694 18.0306L13 15.5603L7.75 20.8103V22.75H25C25.1989 22.75 25.3897 22.829 25.5303 22.9697C25.671 23.1103 25.75 23.3011 25.75 23.5Z" fill="#888D95"/>
</svg>
