<svg width="32" height="32" viewBox="0 0 32 32" fill="none" xmlns="http://www.w3.org/2000/svg">
<path d="M16 3C13.4288 3 10.9154 3.76244 8.77759 5.1909C6.63975 6.61935 4.97351 8.64968 3.98957 11.0251C3.00563 13.4006 2.74819 16.0144 3.2498 18.5362C3.75141 21.0579 4.98953 23.3743 6.80762 25.1924C8.6257 27.0105 10.9421 28.2486 13.4638 28.7502C15.9856 29.2518 18.5995 28.9944 20.9749 28.0104C23.3503 27.0265 25.3807 25.3603 26.8091 23.2224C28.2376 21.0846 29 18.5712 29 16C28.996 12.5534 27.6251 9.24911 25.188 6.812C22.7509 4.37488 19.4466 3.00397 16 3ZM25.795 11H21.3388C20.7776 8.94113 19.8318 7.00709 18.5513 5.3C20.0984 5.67166 21.5469 6.37347 22.7974 7.35732C24.0479 8.34117 25.0709 9.58379 25.7963 11H25.795ZM27 16C27.0009 17.0145 26.8608 18.0241 26.5838 19H21.77C22.0767 17.0118 22.0767 14.9882 21.77 13H26.5838C26.8608 13.9759 27.0009 14.9855 27 16ZM16 5.375C17.4974 6.97815 18.609 8.90204 19.25 11H12.75C13.3904 8.90176 14.502 6.97773 16 5.375ZM12.75 21H19.25C18.6096 23.0982 17.498 25.0223 16 26.625C14.5026 25.0218 13.391 23.098 12.75 21ZM12.2625 19C11.9192 17.0147 11.9192 14.9853 12.2625 13H19.7475C20.0908 14.9853 20.0908 17.0147 19.7475 19H12.2625ZM18.5563 26.7C19.8368 24.9929 20.7826 23.0589 21.3438 21H25.8013C25.0754 22.4168 24.0516 23.6597 22.8002 24.6436C21.5488 25.6275 20.0993 26.329 18.5513 26.7H18.5563Z" fill="#B8F4EF"/>
</svg>
