<svg width="32" height="32" viewBox="0 0 32 32" fill="none" xmlns="http://www.w3.org/2000/svg">
<rect x="5.5" y="5.5" width="21" height="21" rx="10.5" fill="#033839"/>
<rect x="5.5" y="5.5" width="21" height="21" rx="10.5" stroke="#033839"/>
<path d="M21.7834 11.5906C22.0411 11.8484 22.1859 12.1981 22.1859 12.5627C22.1859 12.9273 22.0411 13.277 21.7834 13.5348L14.9084 20.4098C14.6505 20.6676 14.3008 20.8124 13.9362 20.8124C13.5716 20.8124 13.222 20.6676 12.9641 20.4098L10.2141 17.6598C9.96364 17.4005 9.82504 17.0532 9.82818 16.6926C9.83131 16.3321 9.97592 15.9873 10.2309 15.7323C10.4858 15.4774 10.8307 15.3328 11.1912 15.3296C11.5517 15.3265 11.899 15.4651 12.1584 15.7156L13.9362 17.4934L19.8391 11.5906C20.097 11.3328 20.4466 11.188 20.8112 11.188C21.1758 11.188 21.5255 11.3328 21.7834 11.5906Z" fill="#ffffff"/>
</svg>
